<svg width="26" height="26" viewBox="0 0 26 26" fill="none" xmlns="http://www.w3.org/2000/svg">
<path d="M2.22314 18.4697C2.22314 19.1949 2.51123 19.8904 3.02402 20.4032C3.53682 20.916 4.23232 21.2041 4.95752 21.2041H21.3638C22.089 21.2041 22.7845 20.916 23.2973 20.4032C23.8101 19.8904 24.0981 19.1949 24.0981 18.4697V10.9502H2.22314V18.4697ZM5.4458 14.7588C5.4458 14.3703 5.60013 13.9977 5.87484 13.723C6.14956 13.4483 6.52214 13.2939 6.91064 13.2939H9.25439C9.6429 13.2939 10.0155 13.4483 10.2902 13.723C10.5649 13.9977 10.7192 14.3703 10.7192 14.7588V15.7354C10.7192 16.1239 10.5649 16.4964 10.2902 16.7712C10.0155 17.0459 9.6429 17.2002 9.25439 17.2002H6.91064C6.52214 17.2002 6.14956 17.0459 5.87484 16.7712C5.60013 16.4964 5.4458 16.1239 5.4458 15.7354V14.7588ZM21.3638 4.0166H4.95752C4.23232 4.0166 3.53682 4.30469 3.02402 4.81748C2.51123 5.33028 2.22314 6.02578 2.22314 6.75098V8.02051H24.0981V6.75098C24.0981 6.02578 23.8101 5.33028 23.2973 4.81748C22.7845 4.30469 22.089 4.0166 21.3638 4.0166Z" fill="black"/>
</svg>
