<svg width="24" height="24" viewBox="0 0 24 24" fill="none" xmlns="http://www.w3.org/2000/svg">
<path d="M18.1568 14.5938C19.4466 11.5393 18.289 7.93108 15.3433 6.23042C13.2147 5.00146 10.6902 5.07916 8.69869 6.21466L7.87133 4.76663C10.3607 3.34728 13.5162 3.25015 16.177 4.78635C19.9211 6.94796 21.3543 11.575 19.6099 15.4327L20.7286 16.0786L17.256 17.9246L17.1185 13.9943L18.1568 14.5938ZM5.8599 9.41961C4.57013 12.4741 5.72779 16.0823 8.67342 17.7829C10.802 19.012 13.3264 18.9343 15.3179 17.7989L16.1453 19.2468C13.6559 20.6662 10.5005 20.7632 7.83969 19.2271C4.09568 17.0654 2.66249 12.4385 4.40679 8.58065L3.28809 7.93477L6.76065 6.0888L6.89827 10.0191L5.8599 9.41961ZM9.09029 13.6741H13.6758C13.9061 13.6741 14.0927 13.4875 14.0927 13.2573C14.0927 13.0271 13.9061 12.8404 13.6758 12.8404H10.3409C9.18974 12.8404 8.25655 11.9073 8.25655 10.7561C8.25655 9.60496 9.18974 8.67177 10.3409 8.67177H11.1746V7.83804H12.8421V8.67177H14.9264V10.3392H10.3409C10.1107 10.3392 9.92402 10.5259 9.92402 10.7561C9.92402 10.9863 10.1107 11.1729 10.3409 11.1729H13.6758C14.827 11.1729 15.7602 12.1061 15.7602 13.2573C15.7602 14.4085 14.827 15.3416 13.6758 15.3416H12.8421V16.1753H11.1746V15.3416H9.09029V13.6741Z" fill="#115E5B"/>
</svg>
