<?xml version="1.0" encoding="utf-8"?>
<!-- Generator: Adobe Illustrator 26.0.2, SVG Export Plug-In . SVG Version: 6.00 Build 0)  -->
<svg version="1.1" id="Layer_1" xmlns="http://www.w3.org/2000/svg" xmlns:xlink="http://www.w3.org/1999/xlink" x="0px" y="0px"
	 width="24px" height="24px" viewBox="0 0 24 24" style="enable-background:new 0 0 24 24;" xml:space="preserve">
<style type="text/css">
	.st0{fill:#00BBAB;}
</style>
<path class="st0" d="M18,19.5H6v2H4v-2H3c-0.6,0-1-0.4-1-1v-15c0-0.6,0.4-1,1-1h18c0.6,0,1,0.4,1,1v15c0,0.6-0.4,1-1,1h-1v2h-2V19.5
	z M4,17.5h16v-13H4V17.5z M13,13.4v3.1h-2v-3.1c-1.7-0.4-3-2-3-3.9c0-2.2,1.8-4,4-4c2.2,0,4,1.8,4,4C16,11.4,14.7,12.9,13,13.4z
	 M12,11.5c1.1,0,2-0.9,2-2c0-1.1-0.9-2-2-2c-1.1,0-2,0.9-2,2C10,10.6,10.9,11.5,12,11.5z"/>
</svg>
