<svg width="25" height="25" viewBox="0 0 25 25" fill="none" xmlns="http://www.w3.org/2000/svg">
<path d="M12.5 8.59375C11.7274 8.59375 10.9722 8.82285 10.3298 9.25207C9.68745 9.6813 9.18678 10.2914 8.89112 11.0051C8.59547 11.7189 8.51811 12.5043 8.66884 13.2621C8.81956 14.0198 9.19159 14.7158 9.73789 15.2621C10.2842 15.8084 10.9802 16.1805 11.738 16.3312C12.4957 16.4819 13.2811 16.4046 13.9949 16.1089C14.7087 15.8132 15.3187 15.3126 15.748 14.6702C16.1772 14.0278 16.4063 13.2726 16.4063 12.5C16.4032 11.4649 15.9906 10.4732 15.2587 9.74128C14.5269 9.00938 13.5351 8.59684 12.5 8.59375ZM20.9336 12.5C20.9316 12.865 20.9048 13.2294 20.8535 13.5908L23.231 15.4521C23.3345 15.5376 23.4043 15.6572 23.4278 15.7894C23.4514 15.9216 23.4271 16.0579 23.3594 16.1738L21.1104 20.0566C21.042 20.1716 20.9353 20.2587 20.809 20.3028C20.6827 20.3468 20.545 20.3449 20.42 20.2974L17.6245 19.1743C17.0425 19.6226 16.4055 19.9945 15.729 20.2812L15.3111 23.249C15.2877 23.382 15.2188 23.5026 15.1163 23.5905C15.0138 23.6783 14.884 23.7278 14.7491 23.7305H10.251C10.1185 23.7279 9.9908 23.6805 9.88873 23.596C9.78666 23.5114 9.71625 23.3948 9.68899 23.2651L9.27102 20.2974C8.59274 20.014 7.95528 19.6414 7.37552 19.1895L4.58011 20.3125C4.45515 20.3601 4.31742 20.3621 4.19114 20.3181C4.06487 20.2742 3.95812 20.1871 3.88968 20.0723L1.64065 16.1899C1.57296 16.074 1.5487 15.9377 1.57223 15.8055C1.59576 15.6733 1.66553 15.5538 1.76907 15.4683L4.14651 13.6069C4.0958 13.2401 4.06905 12.8703 4.06644 12.5C4.06847 12.135 4.09522 11.7706 4.14651 11.4092L1.76907 9.54785C1.66553 9.46235 1.59576 9.34282 1.57223 9.21061C1.5487 9.07841 1.57296 8.94214 1.64065 8.82617L3.88968 4.94336C3.95805 4.82842 4.06476 4.74126 4.19104 4.69723C4.31733 4.6532 4.45509 4.65512 4.58011 4.70264L7.37552 5.82568C7.95761 5.37745 8.5946 5.00545 9.27102 4.71875L9.68899 1.75098C9.71239 1.61804 9.78122 1.49736 9.88373 1.40954C9.98623 1.32173 10.1161 1.27224 10.251 1.26953H14.7491C14.8815 1.27211 15.0093 1.31953 15.1113 1.40404C15.2134 1.48856 15.2838 1.60518 15.3111 1.73486L15.729 4.70264C16.4082 4.98583 17.0465 5.35842 17.627 5.81055L20.42 4.6875C20.5449 4.63994 20.6826 4.63795 20.8089 4.68189C20.9352 4.72583 21.0419 4.81288 21.1104 4.92773L23.3594 8.81055C23.4271 8.92652 23.4514 9.06278 23.4278 9.19499C23.4043 9.32719 23.3345 9.44673 23.231 9.53223L20.8535 11.3936C20.9042 11.7602 20.931 12.1298 20.9336 12.5Z" fill="black"/>
</svg>
