<svg width="24" height="24" viewBox="0 0 24 24" fill="none" xmlns="http://www.w3.org/2000/svg">
<path d="M5.67733 14.1108L8.51339 11.2747L10.8715 13.6329L13.5036 11.0008L12.0088 9.50607H16.1774V13.6747L14.6826 12.1799L10.8715 15.991L8.51339 13.6329L6.45061 15.6956C7.64555 17.4927 9.68883 18.6771 12.0088 18.6771C15.6924 18.6771 18.6786 15.6909 18.6786 12.0072C18.6786 8.3236 15.6924 5.33739 12.0088 5.33739C8.32506 5.33739 5.33886 8.3236 5.33886 12.0072C5.33886 12.7423 5.45774 13.4494 5.67733 14.1108ZM4.39507 15.4099L4.38662 15.4015L4.38985 15.3982C3.92808 14.3623 3.67139 13.2147 3.67139 12.0072C3.67139 7.40268 7.40415 3.66992 12.0088 3.66992C16.6133 3.66992 20.3461 7.40268 20.3461 12.0072C20.3461 16.6119 16.6133 20.3446 12.0088 20.3446C8.61615 20.3446 5.69685 18.3183 4.39507 15.4099Z" fill="#8E6140"/>
</svg>
